<?xml version="1.0" encoding="UTF-8"?>
<svg id="Layer_1" xmlns="http://www.w3.org/2000/svg" version="1.1" viewBox="0 0 500 117.3">
  <!-- Generator: Adobe Illustrator 30.1.0, SVG Export Plug-In . SVG Version: 2.1.1 Build 136)  -->
  <defs>
    <style>
      .st0 {
        fill: #fff;
      }

      .st0, .st1, .st2, .st3 {
        fill-rule: evenodd;
      }

      .st1 {
        fill: #ff5e4f;
      }

      .st2 {
        fill: #d1462a;
      }

      .st3 {
        fill: #d7d2c8;
      }

      .st4 {
        fill: #ef4a2e;
        stroke: #ef4a2e;
        stroke-miterlimit: 10;
        stroke-width: .6px;
      }
    </style>
  </defs>
  <circle cx="55.9" cy="58.7" r="53.9"/>
  <g>
    <path d="M162.4,30.3c0,2.1-1.2,3.3-3.3,3.3h-5.3c-2.1,0-3.3-1.2-3.3-3.3v-9.9c0-3.2-1.5-5.3-5.3-5.3s-5.3,2.2-5.3,5.3v39.8c0,3.2,1.4,5.3,5.3,5.3s5.3-2.2,5.3-5.3v-10c0-2.1,1.2-3.2,3.3-3.2h5.3c2.1,0,3.3,1.1,3.3,3.2v10c0,9.8-5.4,14.5-17.3,14.5s-17.2-4.8-17.2-14.5V20.4c0-9.8,5.3-14.5,17.2-14.5s17.3,4.8,17.3,14.5v9.9Z"/>
    <path d="M193.2,71.3l-1.4-10.5h-11.9l-1.3,10.5c-.3,2.2-1.7,2.9-3.3,2.9h-5.1c-2.3,0-3.5-1.7-3.1-3.9l9.3-60.9c.3-2.3,1.5-3.1,3.4-3.1h12.2c1.9,0,3,.8,3.3,3.1l9.3,60.9c.4,2.3-.8,3.9-3.1,3.9h-5.1c-1.5,0-3-.8-3.2-2.9ZM181,51.6h9.6l-1.9-14.4-2.4-22.7h-.8l-2.4,22.7-2,14.4Z"/>
    <path d="M221.3,49.5v21.5c0,2.1-1.2,3.3-3.3,3.3h-5.3c-2.1,0-3.3-1.2-3.3-3.3V9.5c0-2.1,1.2-3.2,3.3-3.2h12.6c12.2,0,17.6,4.9,17.6,14.9v13.2c0,10.1-5.4,15-17.6,15h-3.9ZM225.2,40.3c4.2,0,5.7-2.3,5.7-5.8v-13.2c0-3.4-1.5-5.7-5.7-5.7h-3.9v24.8h3.9Z"/>
    <path d="M274.6,6.3c2.1,0,3.3,1.1,3.3,3.2v2.7c0,2.1-1.2,3.3-3.3,3.3h-14.2v20.2h10.6c2.1,0,3.3,1.1,3.3,3.2v2.7c0,2.1-1.2,3.3-3.3,3.3h-10.6v20.2h14.2c2.1,0,3.3,1.1,3.3,3.2v2.7c0,2.1-1.2,3.3-3.3,3.3h-22.8c-2.1,0-3.3-1.2-3.3-3.3V9.5c0-2.1,1.2-3.2,3.3-3.2h22.8Z"/>
    <path d="M337.4,30.3c0,2.1-1.2,3.3-3.3,3.3h-5.3c-2.1,0-3.3-1.2-3.3-3.3v-9.9c0-3.2-1.5-5.3-5.3-5.3s-5.3,2.2-5.3,5.3v39.8c0,3.2,1.4,5.3,5.3,5.3s5.3-2.2,5.3-5.3v-10c0-2.1,1.2-3.2,3.3-3.2h5.3c2.1,0,3.3,1.1,3.3,3.2v10c0,9.8-5.4,14.5-17.3,14.5s-17.2-4.8-17.2-14.5V20.4c0-9.8,5.3-14.5,17.2-14.5s17.3,4.8,17.3,14.5v9.9Z"/>
    <path d="M379.3,20.4v39.8c0,9.8-5.4,14.5-17.3,14.5s-17.2-4.8-17.2-14.5V20.4c0-9.8,5.3-14.5,17.2-14.5s17.3,4.8,17.3,14.5ZM356.8,20.4v39.8c0,3.2,1.4,5.3,5.3,5.3s5.3-2.2,5.3-5.3V20.4c0-3.2-1.5-5.3-5.3-5.3s-5.3,2.2-5.3,5.3Z"/>
    <path d="M413.6,45.1l9.3,24.6c.7,1.7.2,4.6-2.9,4.6h-5.7c-1.7,0-2.7-.8-3.2-2.2l-9.2-25.1h-3.1v24c0,2.1-1.2,3.3-3.3,3.3h-5.3c-2.1,0-3.3-1.2-3.3-3.3V9.5c0-2.1,1.2-3.2,3.3-3.2h13.3c12.1,0,17.5,4.9,17.5,14.9v10.7c0,6.7-2.2,11.1-7.4,13.1ZM403.4,37.7c4.1,0,5.7-2.3,5.7-5.8v-10.7c0-3.4-1.6-5.7-5.7-5.7h-4.7v22.2h4.7Z"/>
    <path d="M451.8,71.3l-1.4-10.5h-11.9l-1.3,10.5c-.3,2.2-1.7,2.9-3.3,2.9h-5.1c-2.3,0-3.5-1.7-3.1-3.9l9.3-60.9c.3-2.3,1.5-3.1,3.4-3.1h12.2c1.9,0,3,.8,3.3,3.1l9.3,60.9c.4,2.3-.8,3.9-3.1,3.9h-5.1c-1.5,0-3-.8-3.2-2.9ZM439.6,51.6h9.6l-1.9-14.4-2.4-22.7h-.8l-2.4,22.7-2,14.4Z"/>
    <path d="M479.9,65h14.2c2.1,0,3.3,1.1,3.3,3.2v2.7c0,2.1-1.2,3.3-3.3,3.3h-22.8c-2.1,0-3.3-1.2-3.3-3.3V9.5c0-2.1,1.2-3.2,3.3-3.2h5.3c2.1,0,3.3,1.1,3.3,3.2v55.5Z"/>
  </g>
  <g>
    <path class="st4" d="M128,109.1v-17.3c0-1.4.7-2.2,2-2.2h20.1c4.1,0,6.1,2.2,6.1,6.5s-2,6.5-6.1,6.5h-2.8l7.7,4.5c1.2.7,1.4,1.7.7,3-.7,1.2-1.6,1.5-2.8.8l-12.9-8.3h-8.1v6.5c0,1.4-.7,2.2-2,2.2s-2-.7-2-2.2ZM150.1,94h-18.2v4.3h18.1c1.4,0,2-.7,2-2.1,0-1.4-.7-2.2-2-2.2Z"/>
    <path class="st4" d="M180.2,109.1v-17.4c0-1.4.7-2.2,2-2.2h24.3c1.3,0,2,.7,2,2.2s-.7,2.2-2,2.2h-22.3v4.3h18.2c1.3,0,2,.7,2,2.2s-.7,2.2-2,2.2h-18.2v4.3h22.3c1.3,0,2,.7,2,2.2s-.7,2.2-2,2.2h-24.3c-1.3,0-2-.7-2-2.2Z"/>
    <path class="st4" d="M260.3,93.2l-11.6,17c-.8.7-1.5,1-2,1-.6,0-1.2-.3-2-1l-11.8-17.1c-.6-1-.4-1.9.5-2.9.9-.9,1.8-.9,2.7.1l10.6,16,10.4-15.8c.9-1.2,1.8-1.3,2.8-.3,1,.9,1.2,1.9.4,3Z"/>
    <path class="st4" d="M286.8,89.6c1.3,0,2,.7,2,2.2v17.4c0,1.5-.7,2.2-2,2.2s-2-.7-2-2.2v-17.4c0-1.4.7-2.2,2-2.2Z"/>
    <path class="st4" d="M313,109.1v-17.4c0-1.4.7-2.2,2-2.2h24.3c1.3,0,2,.7,2,2.2s-.7,2.2-2,2.2h-22.3v4.3h18.2c1.3,0,2,.7,2,2.2s-.7,2.2-2,2.2h-18.2v4.3h22.3c1.3,0,2,.7,2,2.2s-.7,2.2-2,2.2h-24.3c-1.3,0-2-.7-2-2.2Z"/>
    <path class="st4" d="M390.4,111.2c-.6.3-1.4.2-2.3-.3l-8.7-7.8-8.9,7.8c-.8.5-1.5.6-2.1.3-.6-.3-1-1-1.1-2l-1.9-16.9c-.2-1.4.3-2.3,1.6-2.5s2.1.3,2.3,1.6l1.8,14,6.2-6.1c.8-.7,1.4-1,2-1s1.2.4,2,1l6.3,6.1,1.8-14.1c.2-1.3,1-1.8,2.3-1.5,1.4.3,1.9,1.2,1.7,2.6l-2,16.9c0,1-.4,1.7-1.1,2Z"/>
    <path class="st4" d="M417.5,109.1v-17.4c0-1.4.7-2.2,2-2.2h24.3c1.3,0,2,.7,2,2.2s-.7,2.2-2,2.2h-22.3v4.3h18.2c1.3,0,2,.7,2,2.2s-.7,2.2-2,2.2h-18.2v4.3h22.3c1.3,0,2,.7,2,2.2s-.7,2.2-2,2.2h-24.3c-1.3,0-2-.7-2-2.2Z"/>
    <path class="st4" d="M498,98.3v4.3c0,5.8-2.7,8.7-8.1,8.7h-18.2c-1.3,0-2-.7-2-2.2v-17.3c0-1.4.7-2.1,2-2.1h18.2c5.4,0,8.1,2.9,8.1,8.7ZM473.8,107h16.1c2.7,0,4.1-1.5,4.1-4.4v-4.3c0-2.9-1.4-4.4-4.1-4.4h-16.1v13.1Z"/>
  </g>
  <g>
    <path class="st0" d="M22.1,65s0,0,0,0c0,0,0,0,0,0,0,0,0,0,0,0,0,0,0,0,0,0h0Z"/>
    <path class="st3" d="M32.6,58.4c-4.1-2.1-7.6-3.6-11-6.1-4.7-3.5-4.4-7.9,7.3-6,4.7.7,9.3,1.3,13.7,1.2,10.3-.3,8-11.3,9.5-19.7,2.2-11.8,8.8-6.8,9.4-.7,1.1,12.7,4.1,19.6,9.4,20.5,6.1,1,14.4-.2,20.5-.5,8.5-.4,7.9,4.8,2.1,7.4-5.9,2.6-12.6,5.5-16.1,6.6-6.2,1.9-5.5,6.2-2.7,11.5,2.5,4.7,5.6,11.2,7.1,14.5,2.2,4.8-1.2,9.3-7.5,3.1-17-17-19-16.3-31.7-3.4-11.3,11.4-14.6,6.5-10.3-1.5,5.9-11.1,12.8-20.5.3-26.8h0Z"/>
    <path class="st2" d="M31.8,57.6c-4.1-2.1-7.6-3.6-11-6.1-4.7-3.5-4.4-7.9,7.3-6,4.7.7,9.3,1.3,13.7,1.2,10.3-.3,8-11.3,9.5-19.7,2.2-11.8,8.8-6.8,9.4-.7,1.1,12.7,4.1,19.6,9.4,20.5,6.1,1,14.4-.2,20.5-.5,8.5-.4,7.9,4.8,2.1,7.4-5.9,2.6-12.6,5.5-16.1,6.6-6.2,1.9-5.5,6.2-2.7,11.5,2.5,4.7,5.6,11.2,7.1,14.5,2.2,4.8-1.2,9.3-7.5,3.1-17-17-19-16.3-31.7-3.4-11.3,11.4-14.6,6.5-10.3-1.5,5.9-11.1,12.8-20.5.3-26.8h0Z"/>
    <path class="st1" d="M30.6,55.4c-4-1.7-8.6-3.9-10.6-5.7-1.2-1.1-1.1-3,.2-3.7,1.2-.6,3.4-.6,5.7-.2,4.7.7,13.4,4,17.8,3.9,8.3-.2,8.2-9.9,8.5-17.9.1-3-.1-11.1,4-11.1,2.5,0,3.3,3.2,3.6,6.8,1.1,12.7,1.8,21.7,7.1,22.6,5,.8,17.7-2.2,23.9-3.1,2.8-.4,5.2,0,5.6,1.7.4,1.9-1.2,3.4-3.8,4.1-6.8,1.8-17.8,3.7-21.2,4.7-6.2,1.9-5.2,6-2.4,11.4,3.2,6.1,7.9,10.9,11.3,17.3.7,1.3,1.7,4,0,4.9-1.7.9-4-1.1-4.9-2-17-17-18.5-24.5-29.9-10.3-3.2,3.9-6.1,7.8-10.3,11.5-1,.9-2.2,1.3-3,1.3-1.6,0-2.2-2.1.4-6.9,2.6-4.8,7.6-12.3,9.2-16.4,2.4-6-.3-8.3-11.1-12.9h0Z"/>
    <path class="st0" d="M51,58.5c-.4-.2-.5-.7,0-.9.2-.1.6-.1,1.2-.1,2.5.1,3.2-.7,3.6-2.8.2-.8.5-1,.8-.9.4,0,.5.4.6.9.4,2.7,2.1,3.1,4.3,3.1.5,0,.8,0,.9.3.1.4-.2.7-.8,1-2.5,1.1-2.7,1.3-1.8,4.7.2.8-.1,1.2-1.1.4-2.8-2.2-3.5-1.3-5-.3-.3.2-.7.5-1.1.5-.3,0-.6-.3-.2-1.1,1.2-2.1.5-3.8-1.3-4.8h0Z"/>
    <path class="st0" d="M65.9,54c.7-.2,1.5.3,1.6,1,.2.7-.3,1.5-1,1.6-.7.2-1.5-.3-1.6-1-.2-.7.3-1.5,1-1.6h0Z"/>
    <path class="st0" d="M71.1,53c.6-.1,1.2.3,1.4.9.1.6-.3,1.2-.9,1.4-.6.1-1.2-.3-1.4-.9-.1-.6.3-1.2.9-1.4h0Z"/>
    <path class="st0" d="M75.9,52.2c.5-.1,1,.2,1.1.7.1.5-.2,1-.7,1.1-.5.1-1-.2-1.1-.7-.1-.5.2-1,.7-1.1h0Z"/>
    <path class="st0" d="M80.3,51.5c.4,0,.8.2.9.6,0,.4-.2.8-.6.9-.4,0-.8-.2-.9-.6,0-.4.2-.8.6-.9h0Z"/>
    <path class="st0" d="M84.3,50.8c.3,0,.6.1.6.4,0,.3-.1.6-.4.6-.3,0-.6-.1-.6-.4,0-.3.1-.6.4-.6h0Z"/>
    <path class="st0" d="M88,50.1c.2,0,.5,0,.5.3,0,.2,0,.5-.3.5-.2,0-.5,0-.5-.3,0-.2,0-.5.3-.5h0Z"/>
    <path class="st0" d="M91.5,49.5c.2,0,.3,0,.4.2,0,.2,0,.3-.2.4-.2,0-.3,0-.4-.2,0-.2,0-.3.2-.4h0Z"/>
    <path class="st0" d="M94.7,48.8c.1,0,.2,0,.3.2,0,.1,0,.2-.2.3-.1,0-.2,0-.3-.2,0-.1,0-.2.2-.3h0Z"/>
    <path class="st0" d="M55.3,51.2c0-.7.6-1.4,1.3-1.4.7,0,1.4.6,1.4,1.3,0,.7-.6,1.4-1.3,1.4-.7,0-1.4-.6-1.4-1.3h0Z"/>
    <path class="st0" d="M55.4,45.9c0-.6.5-1.2,1.1-1.2.6,0,1.2.5,1.2,1.1,0,.6-.5,1.2-1.1,1.2-.6,0-1.2-.5-1.2-1.1h0Z"/>
    <path class="st0" d="M55.5,41c0-.5.4-.9.9-1,.5,0,.9.4,1,.9,0,.5-.4.9-.9,1-.5,0-.9-.4-1-.9h0Z"/>
    <path class="st0" d="M55.6,36.6c0-.4.3-.7.7-.7.4,0,.7.3.7.7,0,.4-.3.7-.7.7-.4,0-.7-.3-.7-.7h0Z"/>
    <path class="st0" d="M55.7,32.5c0-.3.2-.5.5-.5.3,0,.5.2.5.5,0,.3-.2.5-.5.5-.3,0-.5-.2-.5-.5h0Z"/>
    <path class="st0" d="M55.7,28.8c0-.2.2-.4.4-.4.2,0,.4.2.4.4,0,.2-.2.4-.4.4-.2,0-.4-.2-.4-.4h0Z"/>
    <path class="st0" d="M55.8,25.3c0-.2.1-.3.3-.3.2,0,.3.1.3.3,0,.2-.1.3-.3.3-.2,0-.3-.1-.3-.3h0Z"/>
    <path class="st0" d="M55.8,22c0-.1,0-.2.2-.2.1,0,.2,0,.2.2,0,.1,0,.2-.2.2-.1,0-.2,0-.2-.2h0Z"/>
    <path class="st0" d="M48,66.1c-.4.6-.3,1.5.3,1.9.6.4,1.5.3,1.9-.3.4-.6.3-1.5-.3-1.9-.6-.4-1.5-.3-1.9.3h0Z"/>
    <path class="st0" d="M45,70.5c-.4.5-.3,1.2.3,1.6.5.4,1.2.3,1.6-.3.4-.5.3-1.2-.3-1.6-.5-.4-1.2-.3-1.6.3h0Z"/>
    <path class="st0" d="M42.3,74.6c-.3.4-.2,1,.2,1.3.4.3,1,.2,1.3-.2.3-.4.2-1-.2-1.3-.4-.3-1-.2-1.3.2h0Z"/>
    <path class="st0" d="M39.9,78.3c-.2.3-.2.8.2,1,.3.2.8.2,1-.2.2-.3.2-.8-.2-1-.3-.2-.8-.2-1,.2h0Z"/>
    <path class="st0" d="M37.7,81.7c-.2.2-.1.6.1.7.2.2.6.1.7-.1.2-.2.1-.6-.1-.7-.2-.2-.6-.1-.7.1h0Z"/>
    <path class="st0" d="M35.6,84.8c-.1.2,0,.5,0,.6.2.1.5,0,.6,0,.1-.2,0-.5,0-.6-.2-.1-.5,0-.6,0h0Z"/>
    <path class="st0" d="M33.6,87.7c-.1.1,0,.3,0,.4.1.1.3,0,.4,0,.1-.1,0-.3,0-.4-.1-.1-.3,0-.4,0h0Z"/>
    <path class="st0" d="M31.7,90.4c0,0,0,.2,0,.3,0,0,.2,0,.3,0,0,0,0-.2,0-.3,0,0-.2,0-.3,0h0Z"/>
    <path class="st0" d="M63.4,66c.4.6.3,1.4-.3,1.9-.6.4-1.4.3-1.9-.3-.4-.6-.3-1.4.3-1.9.6-.4,1.4-.3,1.9.3h0Z"/>
    <path class="st0" d="M66.4,70.4c.4.5.3,1.2-.2,1.6-.5.4-1.2.3-1.6-.2-.4-.5-.3-1.2.2-1.6.5-.4,1.2-.3,1.6.2h0Z"/>
    <path class="st0" d="M69.2,74.4c.3.4.2,1-.2,1.3-.4.3-1,.2-1.3-.2-.3-.4-.2-1,.2-1.3.4-.3,1-.2,1.3.2h0Z"/>
    <path class="st0" d="M71.7,78.1c.2.3.2.8-.1,1-.3.2-.8.2-1-.1-.2-.3-.2-.8.1-1,.3-.2.8-.2,1,.1h0Z"/>
    <path class="st0" d="M73.9,81.4c.2.2.1.6-.1.7-.2.2-.6.1-.7-.1-.2-.2-.1-.6.1-.7.2-.2.6-.1.7.1h0Z"/>
    <path class="st0" d="M76.1,84.5c.1.2.1.5,0,.6-.2.1-.5.1-.6,0-.1-.2-.1-.5,0-.6.2-.1.5-.1.6,0h0Z"/>
    <path class="st0" d="M78.1,87.3c.1.1,0,.3,0,.4-.1.1-.3,0-.4,0-.1-.1,0-.3,0-.4.1-.1.3,0,.4,0h0Z"/>
    <path class="st0" d="M80,90c0,0,0,.2,0,.3,0,0-.2,0-.3,0,0,0,0-.2,0-.3,0,0,.2,0,.3,0h0Z"/>
    <path class="st0" d="M47.9,56.2c-.7-.3-1.5,0-1.7.8-.3.7,0,1.5.8,1.7.7.3,1.5,0,1.7-.8.3-.7,0-1.5-.8-1.7h0Z"/>
    <path class="st0" d="M42.9,54.5c-.6-.2-1.3,0-1.5.7-.2.6,0,1.3.7,1.5.6.2,1.3,0,1.5-.7.2-.6,0-1.3-.7-1.5h0Z"/>
    <path class="st0" d="M38.2,53c-.5-.2-1,0-1.2.6-.2.5,0,1,.6,1.2.5.2,1,0,1.2-.6.2-.5,0-1-.6-1.2h0Z"/>
    <path class="st0" d="M34,51.7c-.4-.1-.8,0-.9.4-.1.4,0,.8.4.9.4.1.8,0,.9-.4.1-.4,0-.8-.4-.9h0Z"/>
    <path class="st0" d="M30.1,50.4c-.3-.1-.6,0-.7.3-.1.3,0,.6.3.7.3.1.6,0,.7-.3.1-.3,0-.6-.3-.7h0Z"/>
    <path class="st0" d="M26.6,49.2c-.2,0-.5,0-.5.2,0,.2,0,.5.2.5.2,0,.5,0,.5-.2,0-.2,0-.5-.2-.5h0Z"/>
    <path class="st0" d="M23.3,48.1c-.2,0-.3,0-.4.2,0,.2,0,.3.2.4.2,0,.3,0,.4-.2,0-.2,0-.3-.2-.4h0Z"/>
    <path class="st0" d="M20.1,47.1c-.1,0-.2,0-.3.1,0,.1,0,.2.1.3.1,0,.2,0,.3-.1,0-.1,0-.2-.1-.3h0Z"/>
  </g>
</svg>