<?xml version="1.0" encoding="UTF-8"?><svg id="Layer_1" xmlns="http://www.w3.org/2000/svg" viewBox="0 0 609.11 371.67"><defs><style>.cls-1{fill:#e57007;}.cls-1,.cls-2{fill-rule:evenodd;}.cls-3{fill:#fff;}</style></defs><path class="cls-3" d="M407.38,16.12c-1.36-.91-3.63-2.74-3.63-2.74l-3.65-2.11c-3.48-2.01-8.13-4.52-13.33-6.1-.66-.2-2.95-1.2-2.95-1.2l-4.84-1.17c-7.35-1.87-14.86-2.44-21.88-2.78-.14,0-.27,0-.4,0h0c-2.35,0-8.06.37-8.06.37l-3.23.49c-21.71,3.28-36.29,15.47-41.07,33.53-5.26-17.97-20.18-29.78-41.99-32.47l-3.24-.4s-5.55-.15-7.85-.15h0c-.2,0-.41,0-.62.02-7.01.53-14.51,1.31-21.8,3.38l-4.78,1.36s-2.23.98-2.94,1.22c-5.15,1.73-9.74,4.36-13.16,6.46l-3.6,2.21s-2.21,1.89-3.55,2.84c-17.15,12.15-22.32,31.8-13.48,51.28.21.46,2.48,4.88,3.19,6.03,3.71,6.06,8.97,10.89,13.63,14.81.54.45,1.77,1.47,1.77,1.47l1.91,1.33c3.09,2.11,5.5,3.69,7.63,5.09,2.15,1.4,4,2.62,6.09,4.07.44.31,3.13,2.05,3.13,2.05,5.52,3.67,11.2,7.88,11.53,11.31.25,2.58-.52,4.94-2.24,6.83-2.63,2.9-7.17,4.5-12.77,4.5-4.65,0-9.79-1.09-15.27-3.23l-14.12-5.52,9.1,12.13c11.81,15.73,23.83,19.03,31.82,19.03,4.31,0,8.59-.93,12.72-2.77l.06-.02.05-.03,3.08-1.47.11-.05.11-.06c7.05-3.88,12.45-9.45,15.2-15.71h-.01c.17-.31.31-.62.45-.91.22-.46.45-.94.52-1.1,1.97-4.02,2.95-8.79,2.82-13.78-.08-3-.67-6.02-1.76-8.97l-.09-.25-.12-.23s0,0,0,0c0,0-.25-.52-.76-1.85-2.42-6.25-6.68-10.39-11.2-14.77-.62-.61-1.26-1.23-1.91-1.87-1.87-1.85-3.01-2.75-3.59-3.17-2.54-2.16-4.82-3.98-7.02-5.73-1.67-1.33-3.39-2.7-5.19-4.2l-3.28-2.75c-3.41-2.95-5.71-4.93-7.5-7.65l-1.95-3.31c-.55-1.27-.79-2.44-.74-3.59.04-1.07.09-2.18,5.37-4.9l4.06-1.19c1.84-.35,3.83-.53,5.92-.53,1.84,0,3.78.14,5.75.42l3.77.68c3.08.64,15.76,6.27,21.06,9l.49,47.89.49,48.22.02,1.86,1.37,1.26,29.83,27.59,3.66,3.39.24.22v.04s.62.53.62.53l.67.62.48.45,1.32-1.29.33-.31v-.02l3.8-3.72,7.18-7.02,21.88-21.38,1.33-1.3-.03-1.86-.87-50.48-.78-45.62c5.23-2.87,17.75-8.85,20.81-9.57l3.75-.78c2.31-.39,4.57-.59,6.71-.59,1.73,0,3.4.13,4.95.38l4.09,1.08c5.35,2.58,5.43,3.68,5.5,4.75.08,1.15-.13,2.33-.64,3.61l-1.86,3.36c-1.72,2.76-3.96,4.81-7.33,7.89l-3.17,2.81c-1.75,1.54-3.43,2.96-5.06,4.33-2.15,1.81-4.38,3.69-6.86,5.92-.57.43-1.68,1.37-3.5,3.26-.63.66-1.25,1.3-1.86,1.92-4.39,4.51-8.54,8.76-10.79,15.07-.49,1.38-.73,1.91-.73,1.91l-.11.24-.06.21c-1.01,2.98-1.51,6.02-1.51,9.02,0,4.99,1.11,9.73,3.2,13.7.08.15.31.61.54,1.06.15.3.31.61.48.91h0c2.92,6.18,8.47,11.61,15.62,15.29l.11.06.11.05,3.11,1.39.06.02.06.02c3.91,1.61,7.94,2.43,11.97,2.43,8.21,0,20.44-3.45,32.11-19.91l8.77-12.37-13.97,5.9c-5.73,2.42-11.1,3.65-15.95,3.65-5.31,0-9.64-1.51-12.2-4.26-1.7-1.83-2.51-4.13-2.33-6.67.24-3.44,5.8-7.81,11.22-11.62l1.61-1.13s1.02-.67,1.46-1c2.05-1.51,3.87-2.77,5.97-4.24,2.09-1.45,4.46-3.1,7.49-5.29l1.85-1.34s1.22-1.09,1.75-1.56c4.55-4.05,9.68-9.02,13.22-15.18.67-1.17,2.77-5.53,3.02-6.12,8.3-19.72,2.6-39.22-14.88-50.9Z"/><path class="cls-2" d="M306.78,49c.7,44.86,1.32,89.42,2.02,134.27,9.69-9.47,19.38-18.93,29.06-28.4-.56-32.87-1.13-65.73-1.69-98.6,3.07-2.1,20.1-10.41,24.24-11.36l3.88-.81c5.07-.86,9.58-.83,13.38-.18l4.67,1.23c5.76,2.73,8.06,4.78,8.31,8.53.13,1.95-.25,3.87-1.05,5.77l-2.03,3.67c-2.03,3.3-4.51,5.57-8.15,8.9l-3.22,2.86c-4.16,3.66-7.68,6.42-12.06,10.37,0,0-.92.61-3.11,2.9-5.14,5.35-9.49,9.26-11.7,15.46-.61,1.71-.88,2.28-.88,2.28-.82,2.44-1.29,4.98-1.28,7.63,0,3.99.8,8.07,2.7,11.7.19.36,1.22,2.4,1.09,2.14,2.72,5.76,7.93,10.33,13.7,13.29l3.11,1.39c11.84,4.88,26.21,1.94,38.92-15.98-22.39,9.46-37.32.68-36.46-11.55.36-5.13,5.84-9.77,13.03-14.85.53-.37-6.09-6.81-5.82-6.89,0,0,6.4,6.59,8.81,4.81,4.2-3.1,7.52-5.22,13.49-9.55.49-.36-7.24-3.29-7.37-9.14,0-.26,7.65,9.16,10.64,6.5,4.79-4.26,9.29-8.77,12.35-14.1,1.96-3.4-9.84-5.99-9.84-5.99,4.51-1.24,12.27,1.2,12.63.35,7.98-18.95,1.39-35.82-13.3-45.64-7.04-4.7-13.28,14.25-13.3,13.31-.1-6.44,6.26-18.02,6.26-18.02-3.87-2.23-7.99-4.35-12.43-5.71-5.24-1.6-7.95,13.9-7.95,13.9-1.96-10.6.36-16.21.36-16.21-6.87-1.75-14.03-2.32-21.03-2.66-7.03-.34-1.48,17.68-1.48,17.68-1.66.13-9.35-16.88-9.35-16.88-21.61,3.27-39.37,16.69-39.12,43.55h0Z"/><path class="cls-1" d="M301.97,48.99c-.48-26.86-18.6-39.79-40.3-42.47,0,0-7.23,17.21-8.89,17.13,0,0,5.06-18.17-1.97-17.63s-14.12,1.29-20.95,3.23c0,0,2.47,5.54.8,16.2,0,0-3.14-15.42-8.33-13.67-4.41,1.48-8.47,3.71-12.27,6.05,0,0,6.67,11.4,6.75,17.84.01.94-6.75-17.84-13.65-12.95-14.42,10.21-20.54,27.26-12.05,45.98.38.84,8.07-1.82,12.61-.7,0,0-11.72,2.91-9.68,6.26,3.21,5.24,7.82,9.63,12.73,13.76,3.06,2.57,10.46-7.05,10.46-6.79.04,5.85-7.61,9-7.12,9.34,6.09,4.17,9.46,6.19,13.75,9.18,2.47,1.72,8.68-5.05,8.68-5.05.27.08-6.17,6.69-5.63,7.05,7.32,4.87,12.93,9.37,13.43,14.49,1.19,12.2-13.49,21.39-36.13,12.54,13.19,17.57,27.64,20.12,39.34,14.92l3.07-1.47c5.69-3.13,10.77-7.84,13.33-13.66-.12.26.85-1.8,1.03-2.17,1.81-3.68,2.48-7.78,2.38-11.77-.07-2.65-.6-5.18-1.49-7.59,0,0-.29-.57-.95-2.26-2.38-6.13-6.84-9.92-12.12-15.13-2.26-2.23-3.19-2.81-3.19-2.81-4.49-3.83-8.08-6.5-12.34-10.04l-3.3-2.77c-3.73-3.22-6.27-5.43-8.39-8.67l-2.13-3.62c-.85-1.88-1.29-3.79-1.21-5.74.15-3.75,2.39-5.87,8.08-8.75l4.64-1.36c3.78-.75,8.29-.9,13.38-.18l3.9.7c4.17.84,21.42,8.68,24.54,10.69.33,32.87.67,65.74,1,98.61,9.94,9.2,19.89,18.39,29.83,27.59-.53-44.86-1.12-89.42-1.65-134.28h0Z"/><path class="cls-3" d="M45.29,292.72l-13.36-19.51h-14.74v19.51H1.17v-70.04h29.98c18.5,0,30.07,9.71,30.07,25.41,0,10.51-5.24,18.21-14.25,22.11l15.53,22.51h-17.21ZM30.25,235.89h-13.06v24.41h13.06c9.79,0,14.74-4.6,14.74-12.21s-4.95-12.21-14.74-12.21Z"/><path class="cls-3" d="M72,257.7c0-20.81,16.03-36.22,37.89-36.22s37.89,15.31,37.89,36.22-16.13,36.22-37.89,36.22-37.89-15.41-37.89-36.22ZM131.55,257.7c0-13.31-9.3-22.41-21.67-22.41s-21.67,9.1-21.67,22.41,9.3,22.41,21.67,22.41,21.67-9.11,21.67-22.41Z"/><path class="cls-3" d="M157.96,257.7c0-21.11,16.03-36.22,37.59-36.22,11.97,0,21.96,4.4,28.49,12.41l-10.29,9.61c-4.65-5.4-10.49-8.2-17.41-8.2-12.96,0-22.16,9.2-22.16,22.41s9.2,22.41,22.16,22.41c6.93,0,12.76-2.8,17.41-8.3l10.29,9.6c-6.53,8.1-16.52,12.51-28.59,12.51-21.47,0-37.5-15.11-37.5-36.22Z"/><path class="cls-3" d="M262.53,265.2l-9.3,9.8v17.71h-15.93v-70.04h15.93v32.72l30.67-32.72h17.81l-28.69,31.22,30.37,38.82h-18.7l-22.16-27.51Z"/><path class="cls-3" d="M329,235.69v18.51h32.05v13.01h-32.05v25.51h-16.03v-70.04h52.33v13.01h-36.31Z"/><path class="cls-3" d="M373.61,257.7c0-20.81,16.03-36.22,37.89-36.22s37.89,15.31,37.89,36.22-16.13,36.22-37.89,36.22-37.89-15.41-37.89-36.22ZM433.17,257.7c0-13.31-9.3-22.41-21.67-22.41s-21.67,9.1-21.67,22.41,9.3,22.41,21.67,22.41,21.67-9.11,21.67-22.41Z"/><path class="cls-3" d="M508.06,292.72l-13.36-19.51h-14.74v19.51h-16.03v-70.04h29.98c18.5,0,30.07,9.71,30.07,25.41,0,10.51-5.24,18.21-14.25,22.11l15.53,22.51h-17.21ZM493.02,235.89h-13.06v24.41h13.06c9.79,0,14.74-4.6,14.74-12.21s-4.95-12.21-14.74-12.21Z"/><path class="cls-3" d="M539.11,222.68h31.46c22.66,0,38.19,13.81,38.19,35.02s-15.53,35.02-38.19,35.02h-31.46v-70.04ZM569.78,279.41c13.75,0,22.76-8.3,22.76-21.71s-9-21.71-22.76-21.71h-14.64v43.42h14.64Z"/><path class="cls-3" d="M42.7,371.36l-14.2-19.9c-1.6.18-3.19.27-4.97.27H6.86v19.64H.29v-61.92h23.25c15.8,0,25.38,7.96,25.38,21.23,0,9.73-5.15,16.54-14.2,19.46l15.17,21.23h-7.19ZM42.35,330.67c0-9.91-6.57-15.57-18.99-15.57H6.86v31.05h16.5c12.42,0,18.99-5.75,18.99-15.48Z"/><path class="cls-3" d="M126.12,365.7v5.66h-43.92v-61.92h42.59v5.66h-36.02v22.03h32.12v5.57h-32.12v23h37.36Z"/><path class="cls-3" d="M210.07,309.44l-27.51,61.92h-6.48l-27.51-61.92h7.1l23.78,53.79,23.96-53.79h6.65Z"/><path class="cls-3" d="M236.78,309.44h6.57v61.92h-6.57v-61.92Z"/><path class="cls-3" d="M325.25,365.7v5.66h-43.92v-61.92h42.59v5.66h-36.02v22.03h32.12v5.57h-32.12v23h37.36Z"/><path class="cls-3" d="M442.83,309.44l-20.94,61.92h-6.92l-18.19-52.81-18.28,52.81h-6.83l-20.94-61.92h6.74l17.92,53.25,18.55-53.25h6.12l18.28,53.52,18.19-53.52h6.3Z"/><path class="cls-3" d="M516.49,365.7v5.66h-43.92v-61.92h42.59v5.66h-36.02v22.03h32.12v5.57h-32.12v23h37.36Z"/><path class="cls-3" d="M549.68,309.44h25.29c19.88,0,33.27,12.74,33.27,30.96s-13.4,30.96-33.27,30.96h-25.29v-61.92ZM574.61,365.7c16.5,0,27.15-10.44,27.15-25.3s-10.65-25.3-27.15-25.3h-18.37v50.6h18.37Z"/></svg>