<?xml version="1.0" encoding="UTF-8"?><svg id="Layer_1" xmlns="http://www.w3.org/2000/svg" viewBox="0 0 901.37 165.94"><defs><style>.cls-1{fill:#e57007;}.cls-1,.cls-2{fill-rule:evenodd;}.cls-3{fill:#fff;}</style></defs><path class="cls-3" d="M194.5,13.98c-1.18-.79-3.14-2.38-3.14-2.38l-3.17-1.83c-3.01-1.74-7.05-3.92-11.56-5.29-.57-.17-2.56-1.04-2.56-1.04l-4.2-1.01c-6.37-1.62-12.88-2.12-18.98-2.41-.12,0-.23,0-.35,0h0c-2.04,0-6.99.32-6.99.32l-2.8.42c-18.82,2.85-31.47,13.41-35.62,29.08-4.56-15.59-17.5-25.82-36.41-28.16l-2.81-.35s-4.81-.13-6.81-.13h0c-.18,0-.36,0-.54.02-6.08.46-12.58,1.14-18.9,2.93l-4.15,1.18s-1.93.85-2.55,1.06c-4.47,1.5-8.44,3.78-11.41,5.61l-3.12,1.92s-1.92,1.64-3.07,2.46C.5,26.9-3.98,43.94,3.68,60.83c.18.4,2.15,4.23,2.76,5.23,3.21,5.25,7.78,9.44,11.82,12.84.47.39,1.54,1.28,1.54,1.28l1.66,1.16c2.68,1.83,4.77,3.2,6.62,4.41,1.86,1.22,3.47,2.27,5.28,3.53.38.27,2.71,1.78,2.71,1.78,4.78,3.18,9.71,6.84,10,9.81.22,2.23-.45,4.28-1.94,5.92-2.28,2.52-6.22,3.9-11.07,3.9-4.03,0-8.49-.94-13.24-2.8l-12.25-4.79,7.89,10.51c10.24,13.64,20.66,16.51,27.6,16.51,3.74,0,7.45-.81,11.03-2.4l.05-.02.05-.02,2.67-1.28.09-.05.09-.05c6.12-3.36,10.8-8.2,13.18-13.62h0c.14-.27.27-.54.39-.78.19-.4.39-.82.45-.95,1.71-3.49,2.56-7.62,2.45-11.95-.07-2.6-.58-5.22-1.52-7.78l-.08-.21-.1-.2s0,0,0,0c0,0-.22-.45-.66-1.6-2.1-5.42-5.8-9.01-9.71-12.81-.54-.53-1.1-1.06-1.66-1.62-1.62-1.6-2.61-2.39-3.11-2.75-2.2-1.88-4.18-3.45-6.09-4.97-1.45-1.15-2.94-2.34-4.5-3.64l-2.85-2.39c-2.96-2.56-4.95-4.28-6.5-6.63l-1.69-2.87c-.47-1.1-.68-2.12-.64-3.11.04-.93.08-1.89,4.66-4.25l3.52-1.03c1.59-.31,3.32-.46,5.14-.46,1.6,0,3.27.12,4.98.36l3.27.59c2.67.56,13.66,5.44,18.27,7.81l.42,41.53.42,41.81.02,1.61,1.18,1.1,25.87,23.93,3.18,2.94.21.19v.04s.54.46.54.46l.58.53.42.39,1.15-1.12.29-.27h0s3.3-3.24,3.3-3.24l6.23-6.08,18.98-18.54,1.15-1.13-.03-1.61-.75-43.78-.68-39.56c4.54-2.49,15.39-7.67,18.05-8.3l3.25-.68c2.01-.34,3.96-.51,5.82-.51,1.5,0,2.95.11,4.3.33l3.55.94c4.64,2.24,4.71,3.19,4.77,4.12.07.99-.11,2.02-.56,3.13l-1.61,2.92c-1.49,2.4-3.43,4.17-6.36,6.84l-2.75,2.44c-1.52,1.33-2.98,2.56-4.39,3.75-1.87,1.57-3.8,3.2-5.95,5.14-.5.37-1.46,1.19-3.04,2.83-.55.57-1.09,1.12-1.61,1.66-3.81,3.91-7.41,7.6-9.36,13.07-.43,1.2-.63,1.65-.63,1.66l-.1.2-.06.18c-.87,2.59-1.31,5.22-1.31,7.82,0,4.33.97,8.44,2.77,11.88.07.13.27.53.47.92.13.26.27.52.42.79h0c2.53,5.36,7.34,10.07,13.55,13.26l.09.05.1.04,2.7,1.2.05.02.05.02c3.39,1.4,6.88,2.11,10.38,2.11,7.12,0,17.73-2.99,27.84-17.26l7.6-10.73-12.11,5.12c-4.97,2.1-9.63,3.17-13.83,3.17-4.6,0-8.36-1.31-10.58-3.69-1.48-1.58-2.18-3.58-2.02-5.78.21-2.98,5.03-6.77,9.73-10.08l1.39-.98s.89-.58,1.27-.87c1.78-1.31,3.35-2.41,5.18-3.67,1.81-1.26,3.87-2.69,6.5-4.59l1.61-1.16s1.06-.95,1.52-1.36c3.95-3.51,8.4-7.82,11.47-13.16.58-1.01,2.4-4.79,2.62-5.3,7.2-17.1,2.26-34.01-12.9-44.14Z"/><path class="cls-2" d="M107.26,42.49c.6,38.9,1.15,77.54,1.75,116.44,8.4-8.21,16.8-16.42,25.2-24.62-.49-28.5-.98-57-1.47-85.5,2.66-1.82,17.43-9.03,21.02-9.85l3.36-.7c4.39-.75,8.31-.72,11.6-.16l4.05,1.07c5,2.36,6.99,4.14,7.21,7.39.12,1.69-.22,3.36-.91,5.01l-1.76,3.19c-1.76,2.86-3.91,4.83-7.07,7.72l-2.79,2.48c-3.61,3.17-6.66,5.57-10.46,9,0,0-.8.53-2.7,2.52-4.46,4.64-8.23,8.03-10.15,13.4-.53,1.48-.77,1.98-.77,1.98-.71,2.12-1.12,4.32-1.11,6.62,0,3.46.69,7,2.34,10.15.17.31,1.05,2.08.95,1.85,2.36,4.99,6.87,8.95,11.88,11.53l2.7,1.2c10.27,4.23,22.73,1.68,33.75-13.86-19.42,8.21-32.36.59-31.62-10.01.31-4.44,5.07-8.48,11.3-12.88.46-.32-5.28-5.9-5.04-5.97,0,0,5.55,5.72,7.64,4.17,3.64-2.69,6.52-4.52,11.7-8.28.42-.31-6.28-2.85-6.39-7.93,0-.22,6.64,7.94,9.23,5.64,4.16-3.7,8.05-7.61,10.71-12.23,1.7-2.95-8.54-5.2-8.54-5.2,3.91-1.08,10.64,1.04,10.95.31,6.92-16.44,1.21-31.06-11.53-39.58-6.1-4.08-11.52,12.36-11.53,11.55-.08-5.58,5.43-15.62,5.43-15.62-3.35-1.94-6.92-3.78-10.78-4.95-4.54-1.39-6.9,12.05-6.9,12.05-1.7-9.19.31-14.06.31-14.06-5.96-1.52-12.17-2.01-18.23-2.3-6.1-.3-1.29,15.33-1.29,15.33-1.44.11-8.11-14.64-8.11-14.64-18.74,2.84-34.14,14.47-33.93,37.77h0Z"/><path class="cls-1" d="M103.09,42.49c-.42-23.29-16.13-34.5-34.94-36.83,0,0-6.27,14.93-7.71,14.85,0,0,4.38-15.75-1.71-15.29-6.05.46-12.25,1.12-18.16,2.8,0,0,2.14,4.81.7,14.04,0,0-2.72-13.37-7.22-11.86-3.82,1.28-7.34,3.22-10.64,5.25,0,0,5.78,9.89,5.85,15.47,0,.81-5.85-15.47-11.84-11.23C4.9,28.55-.41,43.33,6.96,59.57c.33.73,7-1.58,10.94-.61,0,0-10.17,2.53-8.39,5.43,2.78,4.55,6.78,8.35,11.04,11.93,2.65,2.23,9.07-6.11,9.07-5.89.03,5.07-6.6,7.8-6.17,8.1,5.28,3.62,8.21,5.37,11.92,7.96,2.14,1.49,7.53-4.38,7.53-4.38.24.07-5.35,5.8-4.88,6.11,6.35,4.23,11.22,8.13,11.65,12.56,1.03,10.58-11.7,18.55-31.33,10.87,11.44,15.24,23.97,17.45,34.11,12.93l2.67-1.28c4.93-2.71,9.34-6.8,11.56-11.85-.1.23.74-1.56.9-1.88,1.57-3.19,2.15-6.75,2.07-10.21-.06-2.3-.52-4.49-1.29-6.59,0,0-.25-.49-.82-1.96-2.06-5.32-5.93-8.6-10.51-13.12-1.96-1.93-2.77-2.44-2.77-2.44-3.89-3.32-7-5.63-10.7-8.71l-2.86-2.4c-3.23-2.8-5.44-4.71-7.27-7.52l-1.85-3.14c-.74-1.63-1.12-3.28-1.05-4.98.13-3.26,2.07-5.09,7-7.59l4.02-1.18c3.28-.65,7.19-.78,11.6-.16l3.38.61c3.61.72,18.57,7.53,21.28,9.27.29,28.5.58,57.01.87,85.51,8.62,7.98,17.24,15.95,25.87,23.93-.46-38.9-.97-77.54-1.43-116.44h0Z"/><path class="cls-3" d="M300.7,77.34l-14.24-20.56h-15.71v20.56h-17.08V3.51h31.96c19.72,0,32.06,10.23,32.06,26.79,0,11.07-5.59,19.19-15.19,23.31l16.56,23.73h-18.35ZM284.67,17.43h-13.92v25.73h13.92c10.44,0,15.72-4.85,15.72-12.87s-5.27-12.87-15.72-12.87Z"/><path class="cls-3" d="M329.17,40.42c0-21.94,17.08-38.18,40.39-38.18s40.39,16.14,40.39,38.18-17.19,38.18-40.39,38.18-40.39-16.24-40.39-38.18ZM392.66,40.42c0-14.03-9.91-23.62-23.1-23.62s-23.1,9.6-23.1,23.62,9.91,23.62,23.1,23.62,23.1-9.6,23.1-23.62Z"/><path class="cls-3" d="M420.81,40.42c0-22.25,17.08-38.18,40.08-38.18,12.76,0,23.41,4.64,30.37,13.08l-10.97,10.13c-4.96-5.7-11.18-8.65-18.56-8.65-13.82,0-23.62,9.7-23.62,23.62s9.81,23.62,23.62,23.62c7.38,0,13.6-2.95,18.56-8.75l10.97,10.12c-6.96,8.54-17.61,13.18-30.48,13.18-22.89,0-39.97-15.92-39.97-38.18Z"/><path class="cls-3" d="M532.28,48.33l-9.91,10.34v18.67h-16.98V3.51h16.98v34.49l32.69-34.49h18.98l-30.58,32.91,32.38,40.92h-19.93l-23.62-29Z"/><path class="cls-3" d="M603.14,17.22v19.51h34.17v13.71h-34.17v26.89h-17.08V3.51h55.79v13.71h-38.71Z"/><path class="cls-3" d="M650.7,40.42c0-21.94,17.08-38.18,40.39-38.18s40.39,16.14,40.39,38.18-17.19,38.18-40.39,38.18-40.39-16.24-40.39-38.18ZM714.19,40.42c0-14.03-9.91-23.62-23.1-23.62s-23.1,9.6-23.1,23.62,9.91,23.62,23.1,23.62,23.1-9.6,23.1-23.62Z"/><path class="cls-3" d="M794.02,77.34l-14.24-20.56h-15.71v20.56h-17.08V3.51h31.96c19.72,0,32.06,10.23,32.06,26.79,0,11.07-5.59,19.19-15.19,23.31l16.56,23.73h-18.35ZM777.98,17.43h-13.92v25.73h13.92c10.44,0,15.72-4.85,15.72-12.87s-5.27-12.87-15.72-12.87Z"/><path class="cls-3" d="M827.12,3.51h33.54c24.15,0,40.71,14.56,40.71,36.91s-16.56,36.91-40.71,36.91h-33.54V3.51ZM859.82,63.31c14.66,0,24.26-8.75,24.26-22.89s-9.6-22.89-24.26-22.89h-15.61v45.77h15.61Z"/><path class="cls-3" d="M296.1,164.41l-15.18-21.35c-1.71.19-3.42.28-5.31.28h-17.84v21.06h-7.02v-66.42h24.86c16.89,0,27.14,8.54,27.14,22.77,0,10.44-5.5,17.74-15.18,20.87l16.22,22.77h-7.69ZM295.72,120.76c0-10.63-7.02-16.7-20.3-16.7h-17.65v33.3h17.65c13.28,0,20.3-6.17,20.3-16.6Z"/><path class="cls-3" d="M385.29,158.34v6.07h-46.97v-66.42h45.54v6.07h-38.52v23.63h34.34v5.98h-34.34v24.67h39.94Z"/><path class="cls-3" d="M475.05,97.99l-29.41,66.42h-6.93l-29.41-66.42h7.59l25.43,57.69,25.62-57.69h7.11Z"/><path class="cls-3" d="M503.62,97.99h7.02v66.42h-7.02v-66.42Z"/><path class="cls-3" d="M598.22,158.34v6.07h-46.97v-66.42h45.54v6.07h-38.52v23.63h34.34v5.98h-34.34v24.67h39.94Z"/><path class="cls-3" d="M723.94,97.99l-22.39,66.42h-7.4l-19.45-56.64-19.54,56.64h-7.31l-22.39-66.42h7.21l19.16,57.12,19.83-57.12h6.55l19.54,57.4,19.45-57.4h6.74Z"/><path class="cls-3" d="M802.7,158.34v6.07h-46.97v-66.42h45.54v6.07h-38.52v23.63h34.34v5.98h-34.34v24.67h39.94Z"/><path class="cls-3" d="M838.19,97.99h27.04c21.25,0,35.58,13.66,35.58,33.21s-14.33,33.21-35.58,33.21h-27.04v-66.42ZM864.85,158.34c17.65,0,29.03-11.2,29.03-27.14s-11.38-27.14-29.03-27.14h-19.64v54.27h19.64Z"/></svg>