<?xml version="1.0" encoding="UTF-8"?><svg id="Layer_1" xmlns="http://www.w3.org/2000/svg" viewBox="0 0 856.69 150.38"><defs><style>.cls-1{fill:#231f20;}.cls-1,.cls-2{fill-rule:evenodd;}.cls-2{fill:#e57007;}</style></defs><path class="cls-1" d="M100.2,37.83c.58,37.6,1.11,74.95,1.69,112.54,8.12-7.93,16.24-15.87,24.36-23.8-.47-27.55-.95-55.09-1.42-82.64,2.57-1.76,16.84-8.73,20.32-9.52l3.25-.68c4.25-.72,8.03-.7,11.21-.15l3.92,1.03c4.83,2.29,6.75,4,6.97,7.15.11,1.64-.21,3.25-.88,4.84l-1.71,3.08c-1.7,2.76-3.78,4.67-6.83,7.46l-2.7,2.39c-3.49,3.07-6.44,5.38-10.11,8.7,0,0-.77.51-2.61,2.43-4.31,4.49-7.95,7.76-9.81,12.95-.51,1.43-.74,1.91-.74,1.91-.69,2.05-1.08,4.18-1.08,6.4,0,3.35.67,6.77,2.26,9.81.16.3,1.02,2.01.92,1.79,2.28,4.82,6.64,8.65,11.48,11.14l2.61,1.16c9.92,4.09,21.97,1.63,32.62-13.4-18.77,7.93-31.28.57-30.56-9.68.3-4.3,4.9-8.19,10.92-12.44.44-.31-5.1-5.7-4.88-5.77,0,0,5.36,5.53,7.39,4.03,3.52-2.6,6.3-4.37,11.31-8.01.41-.3-6.07-2.76-6.18-7.66,0-.22,6.42,7.67,8.92,5.45,4.02-3.57,7.79-7.35,10.35-11.82,1.64-2.85-8.25-5.02-8.25-5.02,3.78-1.04,10.28,1.01,10.58.3,6.69-15.89,1.17-30.03-11.15-38.25-5.9-3.94-11.13,11.95-11.14,11.16-.08-5.4,5.25-15.1,5.25-15.1-3.24-1.87-6.69-3.65-10.42-4.79-4.39-1.34-6.67,11.65-6.67,11.65-1.64-8.89.3-13.59.3-13.59-5.76-1.47-11.76-1.94-17.62-2.23-5.9-.29-1.24,14.82-1.24,14.82-1.39.11-7.84-14.15-7.84-14.15-18.11,2.74-33,13.99-32.79,36.5h0Z"/><path class="cls-2" d="M96.16,37.83c-.4-22.51-15.59-33.35-33.78-35.59,0,0-6.06,14.43-7.45,14.35,0,0,4.24-15.23-1.65-14.78-5.85.44-11.84,1.08-17.56,2.71,0,0,2.07,4.65.67,13.58,0,0-2.63-12.92-6.98-11.46-3.69,1.24-7.1,3.11-10.29,5.07,0,0,5.59,9.55,5.66,14.95,0,.79-5.66-14.95-11.44-10.85C1.26,24.36-3.87,38.65,3.25,54.34c.32.7,6.76-1.52,10.57-.59,0,0-9.83,2.44-8.11,5.25,2.69,4.39,6.56,8.07,10.67,11.53,2.56,2.16,8.76-5.91,8.76-5.69.03,4.9-6.38,7.54-5.96,7.83,5.11,3.49,7.93,5.19,11.52,7.69,2.07,1.44,7.28-4.23,7.28-4.23.23.06-5.17,5.6-4.72,5.91,6.14,4.09,10.84,7.86,11.26,12.14,1,10.23-11.31,17.93-30.29,10.51,11.06,14.73,23.17,16.86,32.97,12.5l2.58-1.23c4.77-2.62,9.03-6.57,11.17-11.45-.1.22.72-1.51.87-1.82,1.51-3.08,2.08-6.52,2-9.87-.06-2.22-.5-4.34-1.25-6.37,0,0-.24-.47-.79-1.89-1.99-5.14-5.73-8.31-10.16-12.68-1.89-1.87-2.68-2.36-2.68-2.36-3.76-3.21-6.77-5.44-10.34-8.42l-2.76-2.32c-3.12-2.7-5.26-4.55-7.03-7.27l-1.79-3.03c-.71-1.57-1.08-3.17-1.01-4.81.13-3.15,2-4.92,6.77-7.33l3.89-1.14c3.17-.63,6.95-.76,11.21-.15l3.27.59c3.49.7,17.95,7.28,20.57,8.96.28,27.55.56,55.1.84,82.65,8.33,7.71,16.67,15.42,25,23.13-.44-37.6-.94-74.95-1.38-112.55h0Z"/><path d="M294.35,70.3l-13.33-19.25h-14.71v19.25h-15.99V1.18h29.92c18.46,0,30.01,9.58,30.01,25.08,0,10.37-5.23,17.97-14.22,21.82l15.5,22.21h-17.18ZM279.34,14.22h-13.03v24.09h13.03c9.77,0,14.71-4.54,14.71-12.05s-4.94-12.05-14.71-12.05Z"/><path d="M321,35.74c0-20.54,15.99-35.74,37.81-35.74s37.82,15.11,37.82,35.74-16.09,35.74-37.82,35.74-37.81-15.21-37.81-35.74ZM380.44,35.74c0-13.13-9.28-22.12-21.62-22.12s-21.62,8.98-21.62,22.12,9.28,22.12,21.62,22.12,21.62-8.99,21.62-22.12Z"/><path d="M406.79,35.74c0-20.83,15.99-35.74,37.52-35.74,11.95,0,21.92,4.35,28.43,12.24l-10.27,9.48c-4.64-5.33-10.46-8.1-17.38-8.1-12.93,0-22.12,9.08-22.12,22.12s9.18,22.12,22.12,22.12c6.91,0,12.74-2.77,17.38-8.2l10.27,9.48c-6.52,8-16.49,12.34-28.53,12.34-21.43,0-37.42-14.91-37.42-35.74Z"/><path d="M511.15,43.15l-9.28,9.68v17.48h-15.9V1.18h15.9v32.29l30.61-32.29h17.77l-28.63,30.81,30.31,38.31h-18.66l-22.12-27.15Z"/><path d="M577.49,14.02v18.27h31.99v12.84h-31.99v25.18h-15.99V1.18h52.23v12.84h-36.24Z"/><path d="M622.01,35.74c0-20.54,15.99-35.74,37.81-35.74s37.82,15.11,37.82,35.74-16.09,35.74-37.82,35.74-37.81-15.21-37.81-35.74ZM681.45,35.74c0-13.13-9.28-22.12-21.62-22.12s-21.62,8.98-21.62,22.12,9.28,22.12,21.62,22.12,21.62-8.99,21.62-22.12Z"/><path d="M756.18,70.3l-13.33-19.25h-14.71v19.25h-15.99V1.18h29.92c18.46,0,30.01,9.58,30.01,25.08,0,10.37-5.23,17.97-14.22,21.82l15.5,22.21h-17.18ZM741.18,14.22h-13.03v24.09h13.03c9.77,0,14.71-4.54,14.71-12.05s-4.94-12.05-14.71-12.05Z"/><path d="M787.18,1.18h31.4c22.61,0,38.11,13.63,38.11,34.56s-15.5,34.56-38.11,34.56h-31.4V1.18ZM817.78,57.17c13.73,0,22.71-8.2,22.71-21.43s-8.98-21.43-22.71-21.43h-14.61v42.85h14.61Z"/><path d="M290.04,149.24l-14.21-19.99c-1.6.18-3.2.27-4.98.27h-16.7v19.72h-6.57v-62.18h23.27c15.81,0,25.4,7.99,25.4,21.32,0,9.77-5.15,16.61-14.21,19.54l15.19,21.32h-7.2ZM289.68,108.39c0-9.95-6.57-15.63-19.01-15.63h-16.52v31.18h16.52c12.44,0,19.01-5.77,19.01-15.54Z"/><path d="M373.54,143.56v5.68h-43.97v-62.18h42.64v5.68h-36.06v22.12h32.15v5.6h-32.15v23.09h37.39Z"/><path d="M457.58,87.07l-27.53,62.18h-6.48l-27.54-62.18h7.11l23.8,54.01,23.98-54.01h6.66Z"/><path d="M484.32,87.07h6.57v62.18h-6.57v-62.18Z"/><path d="M572.88,143.56v5.68h-43.97v-62.18h42.64v5.68h-36.06v22.12h32.15v5.6h-32.15v23.09h37.39Z"/><path d="M690.58,87.07l-20.96,62.18h-6.93l-18.21-53.03-18.3,53.03h-6.84l-20.96-62.18h6.75l17.94,53.47,18.56-53.47h6.13l18.3,53.74,18.21-53.74h6.31Z"/><path d="M764.31,143.56v5.68h-43.97v-62.18h42.64v5.68h-36.06v22.12h32.15v5.6h-32.15v23.09h37.39Z"/><path d="M797.54,87.07h25.32c19.9,0,33.31,12.79,33.31,31.09s-13.41,31.09-33.31,31.09h-25.32v-62.18ZM822.5,143.56c16.52,0,27.18-10.48,27.18-25.4s-10.66-25.4-27.18-25.4h-18.39v50.81h18.39Z"/></svg>