<?xml version="1.0" encoding="UTF-8"?><svg id="Layer_1" xmlns="http://www.w3.org/2000/svg" viewBox="0 0 609.11 371.67"><defs><style>.cls-1{fill:#231f20;}.cls-1,.cls-2{fill-rule:evenodd;}.cls-2{fill:#e57007;}</style></defs><path class="cls-1" d="M307.05,46.53c.73,47.05,1.39,93.78,2.12,140.83,10.16-9.93,20.32-19.86,30.48-29.78-.59-34.47-1.18-68.94-1.78-103.41,3.22-2.2,21.08-10.92,25.42-11.91l4.06-.85c5.31-.9,10.05-.88,14.03-.19l4.9,1.29c6.04,2.86,8.45,5.01,8.72,8.94.14,2.05-.27,4.06-1.1,6.06l-2.13,3.85c-2.13,3.46-4.73,5.85-8.55,9.33l-3.38,2.99c-4.37,3.84-8.05,6.73-12.65,10.88,0,0-.96.64-3.27,3.04-5.39,5.62-9.95,9.71-12.27,16.21-.64,1.79-.93,2.39-.93,2.39-.86,2.56-1.35,5.22-1.35,8.01,0,4.19.84,8.47,2.83,12.27.2.38,1.28,2.52,1.15,2.24,2.85,6.04,8.31,10.83,14.37,13.94l3.27,1.45c12.42,5.12,27.49,2.04,40.82-16.77-23.49,9.93-39.14.72-38.24-12.11.38-5.38,6.13-10.25,13.67-15.57.56-.39-6.39-7.14-6.1-7.23,0,0,6.71,6.92,9.25,5.04,4.41-3.25,7.88-5.47,14.15-10.02.51-.37-7.6-3.45-7.73-9.59,0-.27,8.03,9.6,11.16,6.82,5.03-4.47,9.74-9.2,12.95-14.79,2.05-3.57-10.32-6.29-10.32-6.29,4.73-1.3,12.87,1.26,13.24.37,8.37-19.88,1.46-37.57-13.95-47.87-7.38-4.93-13.93,14.95-13.94,13.97-.1-6.75,6.56-18.9,6.56-18.9-4.06-2.34-8.38-4.57-13.04-5.99-5.49-1.68-8.34,14.57-8.34,14.57-2.05-11.12.38-17,.38-17-7.21-1.84-14.72-2.43-22.05-2.79-7.38-.36-1.56,18.54-1.56,18.54-1.74.14-9.81-17.7-9.81-17.7-22.67,3.43-41.3,17.5-41.03,45.68h0Z"/><path class="cls-2" d="M302,46.52c-.51-28.17-19.51-41.73-42.26-44.54,0,0-7.58,18.05-9.32,17.96,0,0,5.3-19.05-2.06-18.5-7.32.56-14.81,1.35-21.97,3.39,0,0,2.59,5.82.84,16.99,0,0-3.29-16.17-8.74-14.34-4.62,1.55-8.88,3.89-12.87,6.35,0,0,6.99,11.96,7.08,18.71.01.98-7.08-18.71-14.32-13.58-15.12,10.71-21.55,28.59-12.64,48.23.4.88,8.46-1.91,13.23-.73,0,0-12.3,3.05-10.15,6.57,3.36,5.5,8.21,10.1,13.35,14.43,3.21,2.7,10.97-7.39,10.97-7.12.04,6.14-7.99,9.43-7.46,9.79,6.39,4.37,9.93,6.5,14.42,9.63,2.59,1.8,9.1-5.29,9.1-5.29.29.08-6.47,7.01-5.9,7.39,7.68,5.11,13.57,9.83,14.09,15.19,1.25,12.8-14.15,22.43-37.9,13.15,13.84,18.43,28.99,21.1,41.26,15.64l3.22-1.54c5.97-3.28,11.29-8.22,13.98-14.33-.12.28.9-1.89,1.09-2.27,1.89-3.86,2.61-8.16,2.5-12.35-.07-2.78-.63-5.43-1.56-7.97,0,0-.31-.59-.99-2.37-2.5-6.43-7.17-10.4-12.71-15.87-2.37-2.34-3.35-2.95-3.35-2.95-4.71-4.02-8.47-6.81-12.94-10.53l-3.46-2.9c-3.91-3.38-6.58-5.7-8.8-9.1l-2.24-3.79c-.89-1.97-1.35-3.97-1.27-6.02.16-3.94,2.51-6.15,8.47-9.18l4.86-1.43c3.96-.79,8.69-.95,14.03-.19l4.09.73c4.37.88,22.46,9.1,25.74,11.22.35,34.47.7,68.95,1.05,103.42,10.43,9.65,20.86,19.29,31.29,28.94-.55-47.05-1.17-93.79-1.73-140.83h0Z"/><path d="M44.66,292.72l-13.38-19.32h-14.77v19.32H.46v-69.37h30.03c18.53,0,30.13,9.61,30.13,25.17,0,10.41-5.25,18.04-14.27,21.9l15.56,22.3h-17.24ZM29.6,236.43h-13.08v24.18h13.08c9.81,0,14.77-4.56,14.77-12.09s-4.96-12.09-14.77-12.09Z"/><path d="M71.41,258.04c0-20.61,16.05-35.88,37.96-35.88s37.96,15.16,37.96,35.88-16.15,35.88-37.96,35.88-37.96-15.26-37.96-35.88ZM131.07,258.04c0-13.18-9.32-22.2-21.7-22.2s-21.7,9.02-21.7,22.2,9.32,22.2,21.7,22.2,21.7-9.02,21.7-22.2Z"/><path d="M157.52,258.04c0-20.91,16.05-35.88,37.66-35.88,11.99,0,22,4.36,28.54,12.29l-10.31,9.51c-4.66-5.35-10.5-8.13-17.44-8.13-12.98,0-22.2,9.12-22.2,22.2s9.22,22.2,22.2,22.2c6.94,0,12.78-2.78,17.44-8.23l10.31,9.51c-6.54,8.03-16.55,12.39-28.64,12.39-21.51,0-37.56-14.96-37.56-35.88Z"/><path d="M262.27,265.47l-9.32,9.71v17.54h-15.96v-69.37h15.96v32.41l30.72-32.41h17.84l-28.74,30.92,30.42,38.45h-18.73l-22.2-27.25Z"/><path d="M328.86,236.24v18.33h32.11v12.88h-32.11v25.27h-16.05v-69.37h52.43v12.88h-36.37Z"/><path d="M373.55,258.04c0-20.61,16.05-35.88,37.96-35.88s37.96,15.16,37.96,35.88-16.15,35.88-37.96,35.88-37.96-15.26-37.96-35.88ZM433.21,258.04c0-13.18-9.32-22.2-21.7-22.2s-21.7,9.02-21.7,22.2,9.32,22.2,21.7,22.2,21.7-9.02,21.7-22.2Z"/><path d="M508.23,292.72l-13.38-19.32h-14.77v19.32h-16.05v-69.37h30.03c18.53,0,30.13,9.61,30.13,25.17,0,10.41-5.25,18.04-14.27,21.9l15.56,22.3h-17.24ZM493.16,236.43h-13.08v24.18h13.08c9.81,0,14.77-4.56,14.77-12.09s-4.96-12.09-14.77-12.09Z"/><path d="M539.34,223.35h31.51c22.7,0,38.25,13.68,38.25,34.69s-15.56,34.69-38.25,34.69h-31.51v-69.37ZM570.06,279.54c13.78,0,22.79-8.23,22.79-21.51s-9.02-21.51-22.79-21.51h-14.67v43.01h14.67Z"/><path d="M42.46,371.67l-14.21-19.99c-1.6.18-3.2.27-4.98.27H6.57v19.72H0v-62.18h23.27c15.81,0,25.4,7.99,25.4,21.32,0,9.77-5.15,16.61-14.21,19.54l15.19,21.32h-7.2ZM42.1,330.82c0-9.95-6.57-15.63-19.01-15.63H6.57v31.18h16.52c12.44,0,19.01-5.77,19.01-15.54Z"/><path d="M125.96,365.99v5.68h-43.97v-62.18h42.64v5.68h-36.06v22.12h32.15v5.6h-32.15v23.09h37.39Z"/><path d="M209.99,309.5l-27.53,62.18h-6.48l-27.54-62.18h7.11l23.8,54.01,23.98-54.01h6.66Z"/><path d="M236.74,309.5h6.57v62.18h-6.57v-62.18Z"/><path d="M325.3,365.99v5.68h-43.97v-62.18h42.64v5.68h-36.06v22.12h32.15v5.6h-32.15v23.09h37.39Z"/><path d="M443,309.5l-20.96,62.18h-6.93l-18.21-53.03-18.3,53.03h-6.84l-20.96-62.18h6.75l17.94,53.47,18.56-53.47h6.13l18.3,53.74,18.21-53.74h6.31Z"/><path d="M516.73,365.99v5.68h-43.97v-62.18h42.64v5.68h-36.06v22.12h32.15v5.6h-32.15v23.09h37.39Z"/><path d="M549.96,309.5h25.32c19.9,0,33.31,12.79,33.31,31.09s-13.41,31.09-33.31,31.09h-25.32v-62.18ZM574.92,365.99c16.52,0,27.18-10.48,27.18-25.4s-10.66-25.4-27.18-25.4h-18.39v50.81h18.39Z"/></svg>